<svg xmlns="http://www.w3.org/2000/svg" width="116" height="32" fill="none"><rect width="29.941" height="29.941" x="1.029" y="1.029" stroke="#000" stroke-opacity="0.85" stroke-width="2.059" rx="3.088"></rect><path fill="#000" fill-opacity="0.85" fill-rule="evenodd" d="M19.158 7a1 1 0 00-1-1H7a1 1 0 00-1 1v4.316a1 1 0 001 1h4.842a1 1 0 011 1V25a1 1 0 001 1h4.316a1 1 0 001-1V7z" clip-rule="evenodd"></path><path fill="#000" fill-opacity="0.85" d="M20.21 7a1 1 0 011-1h4.317a1 1 0 011 1v4.316a1 1 0 01-1 1H21.21a1 1 0 01-1-1V7zm20.536 3.89h4.675V23.5h3.192V10.89h4.676V8.227H40.746v2.663zm12.52 12.61h3.177v-6.48c0-1.41 1.029-2.38 2.43-2.38.44 0 1.045.075 1.343.172v-2.819a4.763 4.763 0 00-1-.112c-1.282 0-2.334.746-2.751 2.163h-.12v-1.998h-3.08V23.5zm7.752 0h3.177V12.046h-3.177V23.5zm1.596-12.931c.947 0 1.723-.723 1.723-1.61 0-.88-.776-1.604-1.723-1.604-.94 0-1.715.723-1.715 1.603 0 .888.776 1.61 1.715 1.61zm6.463 6.309c.007-1.477.887-2.342 2.17-2.342 1.275 0 2.043.835 2.036 2.237V23.5h3.177v-7.293c0-2.67-1.566-4.31-3.953-4.31-1.7 0-2.93.835-3.445 2.17h-.134v-2.021H65.9V23.5h3.177v-6.622zm9.047 6.622H81.3v-3.64l.858-.976 3.125 4.616h3.72l-4.466-6.495 4.25-4.96h-3.646l-3.67 4.348h-.17V8.227h-3.177V23.5zm16.13.224c2.834 0 4.744-1.38 5.191-3.505l-2.938-.194c-.32.872-1.141 1.327-2.2 1.327-1.588 0-2.595-1.051-2.595-2.759v-.007h7.8v-.873c0-3.893-2.356-5.817-5.384-5.817-3.37 0-5.556 2.394-5.556 5.929 0 3.632 2.155 5.899 5.683 5.899zm-2.542-7.107c.067-1.305 1.059-2.35 2.468-2.35 1.38 0 2.334.985 2.342 2.35h-4.81zm9.033 6.883h3.177v-6.48c0-1.41 1.029-2.38 2.431-2.38.44 0 1.044.075 1.343.172v-2.819a4.772 4.772 0 00-1-.112c-1.282 0-2.334.746-2.751 2.163h-.12v-1.998h-3.08V23.5zm7.753 0h3.177v-6.48c0-1.41 1.029-2.38 2.431-2.38.44 0 1.044.075 1.342.172v-2.819a4.754 4.754 0 00-.999-.112c-1.283 0-2.334.746-2.752 2.163h-.119v-1.998h-3.08V23.5z"></path></svg>